<svg width="25" height="25" viewBox="0 0 25 25" fill="none" xmlns="http://www.w3.org/2000/svg">
<g id="Icon Left">
<path id="Vector" d="M8.90625 7.5V3.5M16.9062 7.5V3.5M7.90625 11.5H17.9062M5.90625 21.5H19.9062C20.4367 21.5 20.9454 21.2893 21.3205 20.9142C21.6955 20.5391 21.9062 20.0304 21.9062 19.5V7.5C21.9062 6.96957 21.6955 6.46086 21.3205 6.08579C20.9454 5.71071 20.4367 5.5 19.9062 5.5H5.90625C5.37582 5.5 4.86711 5.71071 4.49204 6.08579C4.11696 6.46086 3.90625 6.96957 3.90625 7.5V19.5C3.90625 20.0304 4.11696 20.5391 4.49204 20.9142C4.86711 21.2893 5.37582 21.5 5.90625 21.5Z" stroke="#6B6F80" stroke-width="1.5" stroke-linecap="round" stroke-linejoin="round"/>
</g>
</svg>
