<svg width="25" height="25" viewBox="0 0 25 25" fill="none" xmlns="http://www.w3.org/2000/svg">
<g id="Icon Left">
<path id="Vector" d="M19.9062 21.5V5.5C19.9062 4.96957 19.6955 4.46086 19.3205 4.08579C18.9454 3.71071 18.4367 3.5 17.9062 3.5H7.90625C7.37582 3.5 6.86711 3.71071 6.49204 4.08579C6.11696 4.46086 5.90625 4.96957 5.90625 5.5V21.5M19.9062 21.5H5.90625M19.9062 21.5H21.9062M19.9062 21.5H14.9062M5.90625 21.5H3.90625M5.90625 21.5H10.9062M14.9062 21.5V16.5C14.9062 16.2348 14.8009 15.9804 14.6134 15.7929C14.4258 15.6054 14.1715 15.5 13.9062 15.5H11.9062C11.641 15.5 11.3867 15.6054 11.1991 15.7929C11.0116 15.9804 10.9062 16.2348 10.9062 16.5V21.5M14.9062 21.5H10.9062M9.90625 7.5H10.9062M9.90625 11.5H10.9062M14.9062 7.5H15.9062M14.9062 11.5H15.9062" stroke="#6B6F80" stroke-width="1.5" stroke-linecap="round" stroke-linejoin="round"/>
</g>
</svg>
