<svg width="25" height="25" viewBox="0 0 25 25" fill="none" xmlns="http://www.w3.org/2000/svg">
<g id="Icon Left">
<path id="Vector" d="M12.9062 4.854C13.4437 4.2447 14.1539 3.81351 14.9425 3.61779C15.731 3.42208 16.5604 3.47112 17.3204 3.7584C18.0804 4.04568 18.7348 4.55757 19.1967 5.22596C19.6586 5.89435 19.906 6.68754 19.906 7.5C19.906 8.31246 19.6586 9.10565 19.1967 9.77404C18.7348 10.4424 18.0804 10.9543 17.3204 11.2416C16.5604 11.5289 15.731 11.5779 14.9425 11.3822C14.1539 11.1865 13.4437 10.7553 12.9062 10.146M15.9062 21.5H3.90625V20.5C3.90625 18.9087 4.53839 17.3826 5.66361 16.2574C6.78883 15.1321 8.31495 14.5 9.90625 14.5C11.4975 14.5 13.0237 15.1321 14.1489 16.2574C15.2741 17.3826 15.9062 18.9087 15.9062 20.5V21.5ZM15.9062 21.5H21.9062V20.5C21.9064 19.4467 21.6293 18.4119 21.1027 17.4997C20.5762 16.5875 19.8188 15.8299 18.9066 15.3032C17.9945 14.7765 16.9598 14.4992 15.9065 14.4992C14.8532 14.4991 13.8184 14.7764 12.9062 15.303M13.9062 7.5C13.9062 8.56087 13.4848 9.57828 12.7347 10.3284C11.9845 11.0786 10.9671 11.5 9.90625 11.5C8.84538 11.5 7.82797 11.0786 7.07782 10.3284C6.32768 9.57828 5.90625 8.56087 5.90625 7.5C5.90625 6.43913 6.32768 5.42172 7.07782 4.67157C7.82797 3.92143 8.84538 3.5 9.90625 3.5C10.9671 3.5 11.9845 3.92143 12.7347 4.67157C13.4848 5.42172 13.9062 6.43913 13.9062 7.5Z" stroke="#6B6F80" stroke-width="1.5" stroke-linecap="round" stroke-linejoin="round"/>
</g>
</svg>
