<svg width="25" height="25" viewBox="0 0 25 25" fill="none" xmlns="http://www.w3.org/2000/svg">
<g id="Icon Left">
<path id="Vector" d="M9.90625 19.5V13.5C9.90625 12.9696 9.69554 12.4609 9.32046 12.0858C8.94539 11.7107 8.43668 11.5 7.90625 11.5H5.90625C5.37582 11.5 4.86711 11.7107 4.49204 12.0858C4.11696 12.4609 3.90625 12.9696 3.90625 13.5V19.5C3.90625 20.0304 4.11696 20.5391 4.49204 20.9142C4.86711 21.2893 5.37582 21.5 5.90625 21.5H7.90625C8.43668 21.5 8.94539 21.2893 9.32046 20.9142C9.69554 20.5391 9.90625 20.0304 9.90625 19.5ZM9.90625 19.5V9.5C9.90625 8.96957 10.117 8.46086 10.492 8.08579C10.8671 7.71071 11.3758 7.5 11.9062 7.5H13.9062C14.4367 7.5 14.9454 7.71071 15.3205 8.08579C15.6955 8.46086 15.9062 8.96957 15.9062 9.5V19.5M9.90625 19.5C9.90625 20.0304 10.117 20.5391 10.492 20.9142C10.8671 21.2893 11.3758 21.5 11.9062 21.5H13.9062C14.4367 21.5 14.9454 21.2893 15.3205 20.9142C15.6955 20.5391 15.9062 20.0304 15.9062 19.5M15.9062 19.5V5.5C15.9062 4.96957 16.117 4.46086 16.492 4.08579C16.8671 3.71071 17.3758 3.5 17.9062 3.5H19.9062C20.4367 3.5 20.9454 3.71071 21.3205 4.08579C21.6955 4.46086 21.9062 4.96957 21.9062 5.5V19.5C21.9062 20.0304 21.6955 20.5391 21.3205 20.9142C20.9454 21.2893 20.4367 21.5 19.9062 21.5H17.9062C17.3758 21.5 16.8671 21.2893 16.492 20.9142C16.117 20.5391 15.9062 20.0304 15.9062 19.5Z" stroke="#6B6F80" stroke-width="1.5" stroke-linecap="round" stroke-linejoin="round"/>
</g>
</svg>
