<svg width="25" height="25" viewBox="0 0 25 25" fill="none" xmlns="http://www.w3.org/2000/svg">
<g id="Icon Left">
<g id="Vector">
<path d="M15.7347 10.3284C16.4848 9.57828 16.9062 8.56087 16.9062 7.5C16.9062 6.43913 16.4848 5.42172 15.7347 4.67157C14.9845 3.92143 13.9671 3.5 12.9062 3.5C11.8454 3.5 10.828 3.92143 10.0778 4.67157C9.32768 5.42172 8.90625 6.43913 8.90625 7.5C8.90625 8.56087 9.32768 9.57828 10.0778 10.3284C10.828 11.0786 11.8454 11.5 12.9062 11.5C13.9671 11.5 14.9845 11.0786 15.7347 10.3284Z" stroke="#6B6F80" stroke-width="1.5" stroke-linecap="round" stroke-linejoin="round"/>
<path d="M7.9565 16.5503C9.26926 15.2375 11.0497 14.5 12.9062 14.5C14.7628 14.5 16.5432 15.2375 17.856 16.5503C19.1688 17.863 19.9062 19.6435 19.9062 21.5H5.90625C5.90625 19.6435 6.64375 17.863 7.9565 16.5503Z" stroke="#6B6F80" stroke-width="1.5" stroke-linecap="round" stroke-linejoin="round"/>
</g>
</g>
</svg>
