<svg width="17" height="17" viewBox="0 0 17 17" fill="none" xmlns="http://www.w3.org/2000/svg">
<g id="Icon ">
<path id="Vector" d="M12.2396 11.167L14.9063 8.50033M14.9063 8.50033L12.2396 5.83366M14.9063 8.50033H5.57292M9.57292 11.167V11.8337C9.57292 12.3641 9.3622 12.8728 8.98713 13.2479C8.61206 13.6229 8.10335 13.8337 7.57292 13.8337H4.90625C4.37582 13.8337 3.86711 13.6229 3.49204 13.2479C3.11696 12.8728 2.90625 12.3641 2.90625 11.8337V5.16699C2.90625 4.63656 3.11696 4.12785 3.49204 3.75278C3.86711 3.37771 4.37582 3.16699 4.90625 3.16699H7.57292C8.10335 3.16699 8.61206 3.37771 8.98713 3.75278C9.3622 4.12785 9.57292 4.63656 9.57292 5.16699V5.83366" stroke="#6B6F80" stroke-width="1.5" stroke-linecap="round" stroke-linejoin="round"/>
</g>
</svg>
