<svg width="17" height="16" viewBox="0 0 17 16" fill="none" xmlns="http://www.w3.org/2000/svg">
<g id="Icon ">
<path id="Vector" d="M11.8649 11.1045L9.03626 13.9331C8.91255 14.057 8.76565 14.1552 8.60396 14.2222C8.44227 14.2892 8.26896 14.3237 8.09392 14.3237C7.91889 14.3237 7.74558 14.2892 7.58388 14.2222C7.42219 14.1552 7.27529 14.057 7.15159 13.9331L4.32226 11.1045C3.5764 10.3586 3.06848 9.40827 2.86271 8.37371C2.65695 7.33916 2.76258 6.26681 3.16626 5.29229C3.56993 4.31777 4.25352 3.48483 5.13058 2.89881C6.00763 2.31279 7.03877 2 8.09359 2C9.14841 2 10.1795 2.31279 11.0566 2.89881C11.9337 3.48483 12.6172 4.31777 13.0209 5.29229C13.4246 6.26681 13.5302 7.33916 13.3245 8.37371C13.1187 9.40827 12.6108 10.3586 11.8649 11.1045V11.1045Z" stroke="#838799" stroke-width="1.5" stroke-linecap="round" stroke-linejoin="round"/>
<path id="Vector_2" d="M9.50796 8.74722C9.88304 8.37215 10.0938 7.86344 10.0938 7.33301C10.0938 6.80257 9.88304 6.29387 9.50796 5.91879C9.13289 5.54372 8.62418 5.33301 8.09375 5.33301C7.56332 5.33301 7.05461 5.54372 6.67954 5.91879C6.30446 6.29387 6.09375 6.80257 6.09375 7.33301C6.09375 7.86344 6.30446 8.37215 6.67954 8.74722C7.05461 9.12229 7.56332 9.33301 8.09375 9.33301C8.62418 9.33301 9.13289 9.12229 9.50796 8.74722Z" stroke="#838799" stroke-width="1.5" stroke-linecap="round" stroke-linejoin="round"/>
</g>
</svg>
