<svg width="232" height="186" viewBox="0 0 232 186" fill="none" xmlns="http://www.w3.org/2000/svg">
<g id="Loudspeaker">
<path id="Ellipse 10" d="M138.839 60.2293L138.868 60.343L138.896 60.4566L138.924 60.5702L138.952 60.6838L138.981 60.7972L139.009 60.9106L139.037 61.024L139.065 61.1373L139.093 61.2506L139.121 61.3637L139.149 61.4769L139.178 61.59L139.206 61.703L139.234 61.8159L139.262 61.9288L139.29 62.0417L139.318 62.1545L139.346 62.2672L139.374 62.3799L139.402 62.4925L139.43 62.605L139.458 62.7175L139.486 62.8299L139.514 62.9423L139.542 63.0546L139.569 63.1669L139.597 63.279L139.625 63.3912L139.653 63.5032L139.681 63.6152L139.709 63.7272L139.737 63.8391L139.764 63.9509L139.792 64.0626L139.82 64.1743L139.848 64.2859L139.875 64.3975L139.903 64.509L139.931 64.6205L139.958 64.7318L139.986 64.8431L140.014 64.9544L140.041 65.0656L140.069 65.1767L140.097 65.2877L140.124 65.3987L140.152 65.5097L140.179 65.6205L140.207 65.7313L140.234 65.842L140.262 65.9527L140.289 66.0633L140.317 66.1738L140.344 66.2843L140.372 66.3946L140.399 66.505L140.427 66.6152L140.454 66.7254L140.481 66.8355L140.509 66.9456L140.536 67.0556L140.563 67.1655L140.591 67.2753L140.618 67.3851L140.645 67.4948L140.672 67.6044L140.7 67.714L140.727 67.8235L140.754 67.9329L140.781 68.0423L140.808 68.1516L140.836 68.2608L140.863 68.3699L140.89 68.479L140.917 68.588L140.944 68.6969L140.971 68.8058L140.998 68.9145L141.025 69.0232L141.052 69.1319L141.079 69.2404L141.106 69.3489L141.133 69.4573L141.16 69.5657L141.187 69.6739L141.214 69.7821L141.241 69.8902L141.267 69.9983L141.294 70.1063L141.321 70.2142L141.348 70.322L141.375 70.4297L141.401 70.5374L141.428 70.645L141.455 70.7525L141.482 70.8599L141.508 70.9673L141.535 71.0745L141.561 71.1817L141.588 71.2889L141.615 71.3959L141.641 71.5029L141.668 71.6098L141.694 71.7166L141.721 71.8233L141.747 71.93L141.774 72.0366L141.8 72.1431L141.827 72.2495L141.853 72.3558L141.88 72.4621L141.906 72.5682L141.932 72.6743L141.959 72.7804L141.985 72.8863L142.011 72.9922L142.038 73.0979L142.064 73.2036L142.09 73.3092L142.116 73.4147L142.143 73.5202L142.169 73.6256L142.195 73.7308L142.221 73.836L142.247 73.9411L142.273 74.0462L142.3 74.1511L142.326 74.256L142.352 74.3607L142.378 74.4654L142.404 74.57L142.43 74.6746L142.456 74.779L142.482 74.8834L142.507 74.9876L142.533 75.0918L142.559 75.1959L142.585 75.2999L142.611 75.4038L142.637 75.5077L142.662 75.6114L142.688 75.7151L142.714 75.8186L142.74 75.9221L142.765 76.0255L142.791 76.1288L142.817 76.232L142.842 76.3352L142.868 76.4382L142.894 76.5412L142.919 76.644L142.945 76.7468L142.97 76.8495L142.996 76.9521L143.021 77.0546L143.047 77.157L143.072 77.2593L143.097 77.3616L143.123 77.4637L143.148 77.5658L143.174 77.6677L143.199 77.7696L143.224 77.8714L143.249 77.9731L143.275 78.0746L143.3 78.1761L143.325 78.2775L143.35 78.3789L143.375 78.4801L143.401 78.5812L143.426 78.6822L143.451 78.7832L143.476 78.884L143.501 78.9848L143.526 79.0854L143.551 79.186L143.576 79.2864L143.601 79.3868L143.626 79.4871L143.651 79.5872L143.675 79.6873L143.7 79.7873L143.725 79.8872L143.75 79.987L143.775 80.0867L143.799 80.1863L143.824 80.2858L143.849 80.3852L143.874 80.4845L143.898 80.5837L143.923 80.6828L143.948 80.7818L143.972 80.8807L143.997 80.9795L144.021 81.0782L144.046 81.1768L144.07 81.2753L144.095 81.3737L144.119 81.472L144.143 81.5702L144.168 81.6684L144.192 81.7664L144.217 81.8643L144.241 81.9621L144.265 82.0598L144.289 82.1574L144.314 82.2549L144.338 82.3523L144.362 82.4496L144.386 82.5468L144.41 82.6438L144.434 82.7408L144.458 82.8377L144.483 82.9345L144.507 83.0312L144.531 83.1277L144.555 83.2242L144.579 83.3205L144.602 83.4168L144.626 83.5129L144.65 83.609L144.674 83.7049L144.698 83.8008L144.722 83.8965L144.745 83.9921L144.769 84.0876L144.793 84.183L144.817 84.2783L144.84 84.3735L144.864 84.4686L144.887 84.5636L144.911 84.6585L144.935 84.7532L144.958 84.8479L144.982 84.9424L145.005 85.0369L145.029 85.1312L145.052 85.2254L145.075 85.3195L145.099 85.4135L145.122 85.5074L145.145 85.6012L145.169 85.6948L145.192 85.7884L145.215 85.8818L145.238 85.9752L145.261 86.0684L145.285 86.1615L145.308 86.2545L145.331 86.3474L145.354 86.4402L145.377 86.5329L145.4 86.6254L145.423 86.7178L145.446 86.8102L145.469 86.9024L145.492 86.9945L145.514 87.0865L145.537 87.1783L145.56 87.2701L145.583 87.3617L145.606 87.4533L145.628 87.5447L145.651 87.636L145.674 87.7272L145.696 87.8182L145.719 87.9092L145.742 88L145.764 88.0907L145.787 88.1813L145.809 88.2718L145.832 88.3622L145.854 88.4524L145.876 88.5426L145.899 88.6326L145.921 88.7225L145.943 88.8122L145.966 88.9019L145.988 88.9914L146.01 89.0809L146.032 89.1702L146.055 89.2593L146.077 89.3484L146.099 89.4374L146.121 89.5262L146.143 89.6149L146.165 89.7035L146.187 89.7919L146.209 89.8803L146.231 89.9685L146.253 90.0566L146.275 90.1446L146.296 90.2324L146.318 90.3202L146.34 90.4078L146.362 90.4953L146.383 90.5826L146.405 90.6699L146.427 90.757L146.448 90.844L146.47 90.9309L146.492 91.0176L146.513 91.1042L146.535 91.1907L146.556 91.2771L146.577 91.3634L146.599 91.4495L146.62 91.5355L146.642 91.6214L146.663 91.7071L146.684 91.7927L146.705 91.8782L146.727 91.9636L146.748 92.0488L146.769 92.134L146.79 92.2189L146.811 92.3038L146.832 92.3885L146.853 92.4731L146.874 92.5576L146.895 92.642L146.916 92.7262L146.937 92.8103L146.958 92.8943L146.979 92.9781L147 93.0618L147.02 93.1454L147.041 93.2288L147.062 93.3121L147.083 93.3953L147.103 93.4784L147.124 93.5613L147.144 93.6441L147.165 93.7267L147.185 93.8093L147.206 93.8917L147.226 93.9739L147.247 94.0561L147.267 94.1381L147.287 94.2199L147.308 94.3017L147.328 94.3833L147.348 94.4648L147.369 94.5461L147.389 94.6273L147.409 94.7084L147.429 94.7893L147.449 94.8701L147.469 94.9508L147.489 95.0313L147.509 95.1117L147.529 95.1919L147.549 95.2721L147.569 95.3521L147.589 95.4319L147.608 95.5116L147.628 95.5912L147.648 95.6706L147.668 95.7499L147.687 95.8291L147.707 95.9081L147.727 95.987L147.746 96.0658L147.766 96.1444L147.785 96.2229L147.805 96.3012L147.824 96.3794L147.844 96.4575L147.863 96.5354L147.882 96.6132L147.902 96.6908L147.921 96.7683L147.94 96.8457L147.959 96.9229L147.978 97L147.998 97.0769L148.017 97.1537L148.036 97.2304L148.055 97.3069L148.074 97.3833L148.093 97.4595L148.112 97.5356L148.13 97.6116L148.149 97.6874L148.168 97.763L148.187 97.8385L148.206 97.9139L148.224 97.9891L148.243 98.0642L148.262 98.1392L148.28 98.214L148.299 98.2886L148.317 98.3631L148.336 98.4375L148.354 98.5117L148.373 98.5858L148.391 98.6597L148.409 98.7335L148.428 98.8071L148.446 98.8806L148.464 98.954L148.482 99.0272L148.5 99.1002L148.519 99.1731L148.537 99.2459L148.555 99.3185L148.573 99.3909L148.591 99.4633L148.609 99.5354L148.626 99.6074L148.644 99.6793L148.662 99.751L148.68 99.8226L148.698 99.894L148.715 99.9652L148.733 100.036L148.751 100.107L148.768 100.178L148.786 100.249L148.803 100.319L148.821 100.39L148.838 100.46L148.856 100.53L148.873 100.6L148.89 100.67L148.908 100.739L148.925 100.809L148.942 100.878L148.959 100.947L148.977 101.016L148.994 101.085L149.011 101.154L149.028 101.222L149.045 101.291L149.062 101.359L149.079 101.427L149.096 101.495L149.112 101.562L149.129 101.63L149.146 101.698L149.163 101.765L149.179 101.832L149.196 101.899L149.213 101.966L149.229 102.032L149.246 102.099L149.262 102.165L149.279 102.231L149.295 102.297L149.311 102.363L149.328 102.429L149.344 102.495L149.36 102.56L149.377 102.625L149.393 102.69L149.409 102.755L149.425 102.82L149.441 102.885L149.457 102.949L149.473 103.013L149.489 103.077L149.505 103.141L149.521 103.205L149.537 103.269L149.552 103.332L149.568 103.396L149.584 103.459L149.599 103.522L149.615 103.585L149.631 103.647L149.646 103.71L149.662 103.772L149.677 103.834L149.692 103.896L149.708 103.958L149.723 104.02L149.738 104.081L149.754 104.143L149.769 104.204L149.784 104.265L149.799 104.326L149.814 104.387L149.829 104.447L149.844 104.508L149.859 104.568L149.874 104.628L149.889 104.688L149.904 104.747L149.919 104.807L149.934 104.866L149.948 104.925L149.963 104.985L149.978 105.043L149.992 105.102L150.007 105.161L150.021 105.219L150.036 105.277L150.05 105.335L150.064 105.393L150.079 105.451L150.093 105.508L150.107 105.566L150.122 105.623L150.136 105.68L150.15 105.737L150.164 105.793L150.178 105.85L150.192 105.906L150.206 105.962L150.22 106.018L150.234 106.074L150.248 106.13C150.998 109.15 148.242 112.118 145.056 111.717C130.432 109.874 103.796 108.544 79.5202 110.88C75.3221 111.283 71.1174 111.805 67.0184 112.314C64.6739 112.605 62.3641 112.891 60.1098 113.149C53.887 113.861 48.0568 114.358 42.9097 114.159C37.7564 113.961 33.3715 113.067 29.9915 111.064C26.6464 109.082 24.2158 105.973 23.0229 101.173L23.0128 101.132L23.0027 101.092L22.9927 101.052L22.9828 101.012L22.9729 100.972L22.9632 100.933L22.9535 100.894L22.9439 100.855L22.9343 100.817L22.9249 100.779L22.9155 100.741L22.9062 100.703L22.8969 100.666L22.8878 100.629L22.8787 100.593L22.8697 100.557L22.8608 100.521L22.8519 100.485L22.8431 100.45L22.8344 100.415L22.8257 100.38L22.8172 100.345L22.8087 100.311L22.8002 100.277L22.7919 100.243L22.7836 100.21L22.7753 100.177L22.7672 100.144L22.7591 100.112L22.7511 100.079L22.7431 100.047L22.7352 100.016L22.7274 99.9841L22.7196 99.9529L22.7119 99.9219L22.7043 99.8913L22.6968 99.8608L22.6893 99.8306L22.6818 99.8007L22.6744 99.7711L22.6671 99.7416L22.6599 99.7125L22.6527 99.6835L22.6456 99.6549L22.6385 99.6264L22.6315 99.5982L22.6245 99.5703L22.6177 99.5426L22.6108 99.5151L22.6041 99.4879L22.5973 99.4609L22.5907 99.4341L22.5841 99.4075L22.5775 99.3812L22.5711 99.3551L22.5646 99.3292L22.5583 99.3036L22.5519 99.2781L22.5457 99.2529L22.5394 99.2279L22.5333 99.2031L22.5272 99.1786L22.5211 99.1542L22.5151 99.13L22.5092 99.1061L22.5033 99.0823L22.4974 99.0588L22.4916 99.0355L22.4859 99.0123L22.4802 98.9894L22.4745 98.9666L22.4689 98.9441L22.4633 98.9217L22.4578 98.8995L22.4524 98.8775L22.4469 98.8557L22.4416 98.8341L22.4362 98.8127L22.431 98.7914L22.4257 98.7704L22.4205 98.7495L22.4154 98.7287L22.4103 98.7082L22.4052 98.6878L22.4002 98.6676L22.3952 98.6476L22.3903 98.6277L22.3854 98.608L22.3805 98.5884L22.3757 98.5691L22.3709 98.5498L22.3662 98.5307L22.3615 98.5118L22.3568 98.4931L22.3522 98.4744L22.3476 98.456L22.343 98.4377L22.3385 98.4195L22.334 98.4015L22.3296 98.3836L22.3252 98.3658L22.3208 98.3482L22.3165 98.3307L22.3122 98.3134L22.3079 98.2962L22.3036 98.2791L22.2994 98.2622L22.2952 98.2454L22.2911 98.2287L22.287 98.2121L22.2829 98.1956L22.2788 98.1793L22.2748 98.1631L22.2708 98.147L22.2668 98.131L22.2629 98.1152L22.259 98.0994L22.2551 98.0837L22.2512 98.0682L22.2474 98.0528L22.2436 98.0374L22.2398 98.0222L22.236 98.007L22.2323 97.992L22.2286 97.9771L22.2249 97.9622L22.2212 97.9475L22.2176 97.9328L22.2139 97.9182L22.2103 97.9037L22.2067 97.8893L22.2032 97.875L22.1996 97.8607L22.1961 97.8466L22.1926 97.8325L22.1891 97.8184L22.1857 97.8045L22.1822 97.7906L22.1788 97.7768L22.1754 97.7631L22.172 97.7494L22.1686 97.7358L22.1652 97.7223L22.1619 97.7088L22.1585 97.6954L22.1552 97.682L22.1519 97.6687L22.1486 97.6554L22.1453 97.6422L22.1421 97.6291L22.1388 97.616L22.1356 97.6029L22.1323 97.5899L22.1291 97.5769L22.1259 97.564L22.1227 97.5511L22.1195 97.5382L22.1163 97.5254L22.1131 97.5126L22.1099 97.4998L22.1068 97.4871L22.1036 97.4743L22.1005 97.4617L22.0973 97.449L22.0942 97.4364L22.091 97.4237L22.0879 97.4111L22.0848 97.3985L22.0816 97.386L22.0785 97.3734L22.0754 97.3609L22.0723 97.3483L22.0692 97.3358L22.0661 97.3232L22.0629 97.3107L22.0598 97.2982L22.0567 97.2857L22.0536 97.2731L22.0505 97.2606L22.0474 97.248L22.0442 97.2355L22.0411 97.2229L22.038 97.2104L22.0349 97.1978L22.0317 97.1852L22.0286 97.1726L22.0255 97.1599L22.0223 97.1473L22.0192 97.1346L22.016 97.1219L22.0128 97.1092L22.0097 97.0964L22.0065 97.0836L22.0033 97.0708L22.0001 97.0579L21.9969 97.045L21.9937 97.0321L21.9905 97.0191L21.9872 97.0061L21.984 96.9931L21.9807 96.98L21.9775 96.9668L21.9742 96.9536L21.9709 96.9404L21.9676 96.9271L21.9643 96.9137L21.9609 96.9003L21.9576 96.8868L21.9542 96.8733L21.9508 96.8597L21.9475 96.8461L21.944 96.8323L21.9406 96.8186L21.9372 96.8047L21.9337 96.7908L21.9302 96.7768L21.9267 96.7627L21.9232 96.7485L21.9197 96.7343L21.9161 96.72L21.9125 96.7056L21.9089 96.6911L21.9053 96.6766L21.9017 96.6619L21.898 96.6472L21.8943 96.6324L21.8906 96.6174L21.8869 96.6024L21.8831 96.5873L21.8794 96.5721L21.8756 96.5568L21.8717 96.5413L21.8679 96.5258L21.864 96.5102L21.8601 96.4945L21.8561 96.4786L21.8522 96.4627L21.8482 96.4466L21.8441 96.4304L21.8401 96.4141L21.836 96.3977L21.8319 96.3811L21.8278 96.3645L21.8236 96.3477L21.8194 96.3307L21.8151 96.3137L21.8109 96.2965L21.8066 96.2792L21.8022 96.2618L21.7979 96.2442L21.7935 96.2265L21.789 96.2086L21.7846 96.1906L21.78 96.1725L21.7755 96.1542L21.7709 96.1358L21.7663 96.1172L21.7616 96.0984L21.7569 96.0796L21.7522 96.0605L21.7474 96.0413L21.7426 96.022L21.7378 96.0025L21.7329 95.9828L21.728 95.9629L21.723 95.9429L21.718 95.9228L21.7129 95.9024L21.7078 95.8819L21.7027 95.8612L21.6975 95.8404L21.6923 95.8193L21.687 95.7981L21.6817 95.7767L21.6763 95.7552L21.6709 95.7334L21.6655 95.7114L21.66 95.6893L21.6544 95.667L21.6488 95.6445L21.6432 95.6218L21.6375 95.5989L21.6317 95.5758L21.6259 95.5525L21.6201 95.529L21.6142 95.5053L21.6083 95.4814L21.6023 95.4573L21.5962 95.4329L21.5901 95.4084L21.584 95.3837L21.5778 95.3587L21.5715 95.3335L21.5652 95.3082L21.5589 95.2825L21.5524 95.2567L21.546 95.2307L21.5394 95.2044L21.5328 95.1779L21.5262 95.1512L21.5195 95.1242L21.5127 95.097L21.5059 95.0696L21.4991 95.0419L21.4921 95.014L21.4851 94.9859L21.4781 94.9575L21.471 94.9289L21.4638 94.9L21.4565 94.8709L21.4492 94.8415L21.4419 94.8119L21.4345 94.7821L21.427 94.7519L21.4194 94.7216L21.4118 94.6909L21.4041 94.66L21.3964 94.6289L21.3886 94.5975L21.3807 94.5658L21.3728 94.5338L21.3648 94.5016L21.3567 94.4691L21.3485 94.4363L21.3403 94.4033L21.332 94.37L21.3237 94.3364L21.3153 94.3025L21.3068 94.2684L21.2982 94.2339L21.2896 94.1992L21.2809 94.1642L21.2721 94.1289L21.2633 94.0933L21.2544 94.0574L21.2454 94.0212L21.2363 93.9847L21.2272 93.948L21.2179 93.9109L21.2087 93.8735L21.1993 93.8358L21.1898 93.7978L21.1803 93.7595L21.1707 93.7209L21.1611 93.682L21.1513 93.6428L21.1415 93.6032L21.1316 93.5634L21.1216 93.5232L21.1115 93.4827L21.1014 93.4418L21.0911 93.4007L21.0808 93.3592L21.0704 93.3174L21.06 93.2753L21.0494 93.2328L21.0388 93.19L21.028 93.1468L21.0172 93.1034L21.0063 93.0596L20.9954 93.0154L20.9843 92.9709L20.9732 92.9261L20.9619 92.8809L20.9506 92.8353L20.9392 92.7894L20.9277 92.7432L20.9161 92.6966L20.9045 92.6496L20.8927 92.6023L20.8809 92.5546L20.8689 92.5066L20.8569 92.4582L20.8448 92.4095L20.8326 92.3603L20.8203 92.3108L20.8079 92.261L20.7954 92.2107L20.7828 92.1601L20.7701 92.1091L20.7574 92.0577L20.7445 92.006L20.7315 91.9539L20.7185 91.9013L20.7053 91.8484L20.6921 91.7952L20.6787 91.7415L20.6653 91.6874L20.6518 91.6329L20.6381 91.5781L20.6244 91.5228L20.6106 91.4672L20.5966 91.4111L20.5826 91.3547L20.5685 91.2978L20.5542 91.2405L20.5399 91.1829L20.5255 91.1248L20.5109 91.0663L20.4963 91.0074L20.4816 90.9481L20.4667 90.8883L20.4518 90.8282L20.4367 90.7676L20.4215 90.7066L20.4063 90.6451L20.3909 90.5833L20.3754 90.521L20.3598 90.4583L20.3441 90.3952L20.3283 90.3316L20.3124 90.2676L20.2964 90.2031L20.2803 90.1382L20.264 90.0729L20.2477 90.0071L20.2312 89.9409L20.2147 89.8742L20.198 89.8071L20.1812 89.7395L20.1643 89.6715L20.1473 89.6031L20.1301 89.5341L20.1129 89.4647L20.0955 89.3949L20.0781 89.3246L20.0605 89.2538L20.0428 89.1826L20.0249 89.1109L20.007 89.0387L19.9889 88.9661L19.9708 88.893L19.9525 88.8194L19.9341 88.7453L19.9155 88.6708L19.8969 88.5957L19.8781 88.5202L19.8593 88.4443L19.8402 88.3678L19.8211 88.2908L19.8019 88.2134L19.7825 88.1354L19.763 88.057L19.7434 87.9781L19.7236 87.8986L19.7038 87.8187L19.6838 87.7383L19.6637 87.6574L19.6434 87.5759L19.6231 87.494L19.6026 87.4115L19.582 87.3286L19.5612 87.2451L19.5403 87.1611L19.5193 87.0766L19.4982 86.9916L19.477 86.9061L19.4556 86.8201L19.4341 86.7335L19.4124 86.6464L19.3906 86.5588L19.3687 86.4706L19.3467 86.3819L19.3245 86.2927L19.3022 86.203L19.2798 86.1127L19.2572 86.0219L19.2345 85.9305L19.2116 85.8386L19.1887 85.7461L19.1655 85.6532L19.1423 85.5596L19.1189 85.4655L19.0954 85.3709L19.0717 85.2757L19.0479 85.18L19.024 85.0837L18.9999 84.9868L18.9757 84.8894L18.9514 84.7914L18.9269 84.6929L18.9022 84.5938L18.8775 84.4941L18.8526 84.3939L18.8275 84.2931L18.8023 84.1917L18.777 84.0897L18.7515 83.9872L18.7259 83.8841L18.7001 83.7804L18.6742 83.6761L18.6481 83.5713L18.6219 83.4658L18.5955 83.3598L18.569 83.2532L18.5424 83.146L18.5156 83.0382L18.4887 82.9298L18.4616 82.8208L18.4343 82.7112L18.407 82.601L18.3794 82.4902L18.3517 82.3788L18.3239 82.2668L18.2959 82.1542L18.2678 82.0409L18.2395 81.9271L18.211 81.8127L18.1824 81.6976L18.1537 81.5819L18.1248 81.4656L18.0957 81.3487C16.911 76.582 17.7717 72.426 20.0463 68.6867C22.3383 64.9187 26.0812 61.5527 30.6832 58.4591C37.5871 53.8179 46.2403 49.901 54.4705 46.1756C57.2422 44.921 59.966 43.6881 62.5588 42.4565C84.3806 32.0915 107.023 16.5239 119.85 7.45718C122.257 5.75555 125.608 6.99476 126.317 9.8476L126.332 9.90712L126.347 9.96686L126.362 10.0268L126.377 10.087L126.392 10.1474L126.407 10.208L126.422 10.2688L126.437 10.3298L126.452 10.3911L126.468 10.4526L126.483 10.5142L126.498 10.5761L126.514 10.6382L126.529 10.7005L126.545 10.7631L126.56 10.8258L126.576 10.8888L126.592 10.9519L126.608 11.0153L126.623 11.0789L126.639 11.1427L126.655 11.2067L126.671 11.2709L126.687 11.3353L126.703 11.4L126.719 11.4648L126.735 11.5298L126.752 11.5951L126.768 11.6606L126.784 11.7262L126.801 11.7921L126.817 11.8582L126.834 11.9245L126.85 11.9909L126.867 12.0576L126.883 12.1245L126.9 12.1916L126.917 12.2589L126.933 12.3264L126.95 12.3942L126.967 12.4621L126.984 12.5302L127.001 12.5985L127.018 12.667L127.035 12.7357L127.052 12.8046L127.069 12.8738L127.087 12.9431L127.104 13.0126L127.121 13.0823L127.139 13.1522L127.156 13.2223L127.174 13.2927L127.191 13.3632L127.209 13.4339L127.226 13.5048L127.244 13.5759L127.262 13.6472L127.279 13.7186L127.297 13.7903L127.315 13.8622L127.333 13.9343L127.351 14.0065L127.369 14.079L127.387 14.1517L127.405 14.2245L127.423 14.2975L127.442 14.3708L127.46 14.4442L127.478 14.5178L127.496 14.5916L127.515 14.6656L127.533 14.7398L127.552 14.8141L127.57 14.8887L127.589 14.9635L127.607 15.0384L127.626 15.1135L127.645 15.1888L127.664 15.2643L127.682 15.34L127.701 15.4159L127.72 15.492L127.739 15.5682L127.758 15.6447L127.777 15.7213L127.796 15.7981L127.815 15.8751L127.835 15.9522L127.854 16.0296L127.873 16.1071L127.892 16.1849L127.912 16.2628L127.931 16.3408L127.951 16.4191L127.97 16.4976L127.99 16.5762L128.009 16.655L128.029 16.734L128.049 16.8132L128.068 16.8925L128.088 16.972L128.108 17.0517L128.128 17.1316L128.148 17.2117L128.168 17.2919L128.188 17.3723L128.208 17.4529L128.228 17.5337L128.248 17.6147L128.268 17.6958L128.288 17.7771L128.308 17.8585L128.329 17.9402L128.349 18.022L128.369 18.104L128.39 18.1862L128.41 18.2685L128.431 18.351L128.451 18.4337L128.472 18.5166L128.493 18.5996L128.513 18.6828L128.534 18.7662L128.555 18.8497L128.576 18.9334L128.596 19.0173L128.617 19.1013L128.638 19.1855L128.659 19.2699L128.68 19.3545L128.701 19.4392L128.722 19.5241L128.744 19.6091L128.765 19.6943L128.786 19.7797L128.807 19.8653L128.828 19.951L128.85 20.0369L128.871 20.1229L128.893 20.2091L128.914 20.2955L128.936 20.382L128.957 20.4687L128.979 20.5556L129 20.6426L129.022 20.7298L129.044 20.8171L129.066 20.9047L129.087 20.9923L129.109 21.0802L129.131 21.1681L129.153 21.2563L129.175 21.3446L129.197 21.4331L129.219 21.5217L129.241 21.6105L129.263 21.6994L129.285 21.7885L129.307 21.8777L129.33 21.9672L129.352 22.0567L129.374 22.1464L129.396 22.2363L129.419 22.3263L129.441 22.4165L129.464 22.5069L129.486 22.5974L129.509 22.688L129.531 22.7788L129.554 22.8698L129.577 22.9609L129.599 23.0521L129.622 23.1435L129.645 23.2351L129.668 23.3268L129.69 23.4186L129.713 23.5107L129.736 23.6028L129.759 23.6951L129.782 23.7876L129.805 23.8802L129.828 23.9729L129.851 24.0658L129.874 24.1589L129.897 24.2521L129.921 24.3454L129.944 24.4389L129.967 24.5325L129.99 24.6263L130.014 24.7202L130.037 24.8143L130.061 24.9085L130.084 25.0029L130.108 25.0974L130.131 25.192L130.155 25.2868L130.178 25.3817L130.202 25.4768L130.226 25.572L130.249 25.6673L130.273 25.7628L130.297 25.8585L130.321 25.9542L130.344 26.0501L130.368 26.1462L130.392 26.2424L130.416 26.3387L130.44 26.4352L130.464 26.5318L130.488 26.6285L130.512 26.7254L130.536 26.8224L130.56 26.9195L130.585 27.0168L130.609 27.1143L130.633 27.2118L130.657 27.3095L130.682 27.4073L130.706 27.5053L130.73 27.6034L130.755 27.7016L130.779 27.8L130.804 27.8984L130.828 27.9971L130.853 28.0958L130.877 28.1947L130.902 28.2937L130.927 28.3929L130.951 28.4921L130.976 28.5915L131.001 28.6911L131.026 28.7907L131.05 28.8905L131.075 28.9904L131.1 29.0905L131.125 29.1907L131.15 29.291L131.175 29.3914L131.2 29.4919L131.225 29.5926L131.25 29.6934L131.275 29.7944L131.3 29.8954L131.325 29.9966L131.35 30.0979L131.376 30.1993L131.401 30.3009L131.426 30.4025L131.451 30.5043L131.477 30.6062L131.502 30.7083L131.528 30.8104L131.553 30.9127L131.578 31.0151L131.604 31.1176L131.629 31.2203L131.655 31.323L131.68 31.4259L131.706 31.5289L131.732 31.632L131.757 31.7353L131.783 31.8386L131.809 31.9421L131.835 32.0457L131.86 32.1494L131.886 32.2532L131.912 32.3571L131.938 32.4612L131.964 32.5653L131.99 32.6696L132.016 32.774L132.042 32.8785L132.068 32.9831L132.094 33.0878L132.12 33.1927L132.146 33.2976L132.172 33.4027L132.198 33.5079L132.224 33.6131L132.25 33.7185L132.277 33.824L132.303 33.9297L132.329 34.0354L132.355 34.1412L132.382 34.2472L132.408 34.3532L132.434 34.4594L132.461 34.5656L132.487 34.672L132.514 34.7785L132.54 34.8851L132.567 34.9918L132.593 35.0986L132.62 35.2055L132.646 35.3125L132.673 35.4196L132.7 35.5268L132.726 35.6341L132.753 35.7416L132.78 35.8491L132.807 35.9567L132.833 36.0644L132.86 36.1723L132.887 36.2802L132.914 36.3882L132.941 36.4964L132.968 36.6046L132.995 36.7129L133.021 36.8214L133.048 36.9299L133.075 37.0385L133.102 37.1473L133.13 37.2561L133.157 37.365L133.184 37.474L133.211 37.5832L133.238 37.6924L133.265 37.8017L133.292 37.9111L133.32 38.0206L133.347 38.1302L133.374 38.2399L133.401 38.3497L133.429 38.4595L133.456 38.5695L133.483 38.6796L133.511 38.7897L133.538 38.9L133.566 39.0103L133.593 39.1208L133.62 39.2313L133.648 39.3419L133.675 39.4526L133.703 39.5634L133.731 39.6743L133.758 39.7853L133.786 39.8963L133.813 40.0075L133.841 40.1187L133.869 40.23L133.896 40.3414L133.924 40.4529L133.952 40.5645L133.98 40.6762L134.007 40.788L134.035 40.8998L134.063 41.0117L134.091 41.1237L134.119 41.2358L134.147 41.348L134.174 41.4603L134.202 41.5726L134.23 41.685L134.258 41.7976L134.286 41.9101L134.314 42.0228L134.342 42.1356L134.37 42.2484L134.398 42.3613L134.426 42.4743L134.455 42.5874L134.483 42.7005L134.511 42.8138L134.539 42.9271L134.567 43.0405L134.595 43.1539L134.624 43.2675L134.652 43.3811L134.68 43.4948L134.708 43.6086L134.737 43.7224L134.765 43.8364L134.793 43.9503L134.822 44.0644L134.85 44.1786L134.878 44.2928L134.907 44.4071L134.935 44.5215L134.964 44.6359L134.992 44.7504L135.021 44.865L135.049 44.9796L135.078 45.0944L135.106 45.2092L135.135 45.324L135.163 45.439L135.192 45.554L135.221 45.6691L135.249 45.7842L135.278 45.8994L135.306 46.0147L135.335 46.13L135.364 46.2455L135.392 46.3609L135.421 46.4765L135.45 46.5921L135.479 46.7078L135.507 46.8235L135.536 46.9393L135.565 47.0552L135.594 47.1712L135.623 47.2872L135.652 47.4032L135.68 47.5194L135.709 47.6356L135.738 47.7518L135.767 47.8681L135.796 47.9845L135.825 48.101L135.854 48.2175L135.883 48.334L135.912 48.4506L135.941 48.5673L135.97 48.6841L135.999 48.8009L136.028 48.9177L136.057 49.0346L136.086 49.1516L136.115 49.2686L136.144 49.3857L136.173 49.5029L136.203 49.6201L136.232 49.7373L136.261 49.8546L136.29 49.972L136.319 50.0894L136.348 50.2069L136.378 50.3244L136.407 50.442L136.436 50.5596L136.465 50.6773L136.495 50.7951L136.524 50.9129L136.553 51.0307L136.582 51.1486L136.612 51.2666L136.641 51.3845L136.67 51.5026L136.7 51.6207L136.729 51.7388L136.758 51.857L136.788 51.9753L136.817 52.0936L136.847 52.2119L136.876 52.3303L136.906 52.4487L136.935 52.5672L136.964 52.6857L136.994 52.8043L137.023 52.9229L137.053 53.0416L137.082 53.1603L137.112 53.279L137.141 53.3978L137.171 53.5167L137.201 53.6356L137.23 53.7545L137.26 53.8734L137.289 53.9925L137.319 54.1115L137.348 54.2306L137.378 54.3497L137.408 54.4689L137.437 54.5881L137.467 54.7074L137.497 54.8267L137.526 54.946L137.556 55.0654L137.586 55.1848L137.615 55.3042L137.645 55.4237L137.675 55.5432L137.704 55.6628L137.734 55.7824L137.764 55.902L137.794 56.0217L137.823 56.1414L137.853 56.2611L137.883 56.3809L137.913 56.5007L137.942 56.6205L137.972 56.7404L138.002 56.8603L138.032 56.9802L138.062 57.1002L138.091 57.2202L138.121 57.3402L138.151 57.4603L138.181 57.5804L138.211 57.7005L138.241 57.8206L138.271 57.9408L138.3 58.061L138.33 58.1813L138.36 58.3015L138.39 58.4218L138.42 58.5421L138.45 58.6625L138.48 58.7829L138.51 58.9033L138.54 59.0237L138.57 59.1441L138.6 59.2646L138.63 59.3851L138.659 59.5057L138.689 59.6262L138.719 59.7468L138.749 59.8674L138.779 59.988L138.809 60.1086L138.839 60.2293Z" fill="#390D0E" stroke="#390D0E" stroke-width="1.6875"/>
<g id="Group 33">
<path id="Rectangle 11" d="M47.1102 113.414C46.898 111.958 47.9808 110.634 49.45 110.552L65.8763 109.642C67.0338 109.578 68.084 110.317 68.415 111.428L84.9373 166.878C85.3553 168.281 84.4864 169.741 83.0542 170.044L58.803 175.161C57.3887 175.46 56.0161 174.502 55.8076 173.072L47.1102 113.414Z" fill="#390D0E" stroke="#390D0E" stroke-width="1.6875"/>
<path id="Rectangle 12" d="M42.9813 114.434C42.7691 112.978 43.8519 111.653 45.3211 111.572L61.7474 110.662C62.9049 110.598 63.9551 111.337 64.2861 112.447L80.8084 167.897C81.2264 169.3 80.3575 170.761 78.9253 171.063L54.6741 176.181C53.2598 176.479 51.8872 175.522 51.6787 174.092L42.9813 114.434Z" fill="#FBF2F3" stroke="#390D0E" stroke-width="1.6875"/>
</g>
<g id="Intersect">
<mask id="path-4-inside-1_1000_40972" fill="white">
<path fill-rule="evenodd" clip-rule="evenodd" d="M132.688 79.7411C130.752 73.8396 128.925 67.5066 127.277 60.8788C125.63 54.2506 124.279 47.7989 123.228 41.6774C124.648 40.5989 126.26 39.8051 128.032 39.3647C136.763 37.1946 146.076 44.4279 148.833 55.5208C151.59 66.6137 146.747 77.3654 138.016 79.5355C136.244 79.9759 134.448 80.029 132.688 79.7411Z"/>
</mask>
<path fill-rule="evenodd" clip-rule="evenodd" d="M132.688 79.7411C130.752 73.8396 128.925 67.5066 127.277 60.8788C125.63 54.2506 124.279 47.7989 123.228 41.6774C124.648 40.5989 126.26 39.8051 128.032 39.3647C136.763 37.1946 146.076 44.4279 148.833 55.5208C151.59 66.6137 146.747 77.3654 138.016 79.5355C136.244 79.9759 134.448 80.029 132.688 79.7411Z" fill="#FBF2F3"/>
<path d="M132.688 79.7411L131.084 80.2672L131.404 81.2411L132.416 81.4065L132.688 79.7411ZM127.277 60.8788L125.64 61.2858L127.277 60.8788ZM123.228 41.6774L122.207 40.3333L121.391 40.953L121.564 41.9631L123.228 41.6774ZM128.032 39.3647L127.625 37.727L128.032 39.3647ZM134.291 79.215C132.368 73.3541 130.553 67.0608 128.915 60.4718L125.64 61.2858C127.297 67.9525 129.135 74.3252 131.084 80.2672L134.291 79.215ZM128.915 60.4718C127.277 53.8824 125.935 47.4711 124.891 41.3916L121.564 41.9631C122.623 48.1267 123.983 54.6189 125.64 61.2858L128.915 60.4718ZM124.248 43.0215C125.494 42.0752 126.899 41.3851 128.439 41.0023L127.625 37.727C125.621 38.2251 123.802 39.1226 122.207 40.3333L124.248 43.0215ZM128.439 41.0023C135.922 39.1425 144.567 45.3525 147.195 55.9278L150.471 55.1138C147.585 43.5034 137.604 35.2467 127.625 37.727L128.439 41.0023ZM147.195 55.9278C149.824 66.5032 145.092 76.0379 137.609 77.8978L138.423 81.1731C148.402 78.6929 153.356 66.7241 150.471 55.1138L147.195 55.9278ZM137.609 77.8978C136.069 78.2805 134.505 78.3283 132.96 78.0757L132.416 81.4065C134.392 81.7296 136.419 81.6712 138.423 81.1731L137.609 77.8978Z" fill="#390D0E" mask="url(#path-4-inside-1_1000_40972)"/>
</g>
<path id="Ellipse 9" d="M133.777 60.2293L133.805 60.343L133.833 60.4566L133.862 60.5702L133.89 60.6838L133.918 60.7972L133.946 60.9106L133.974 61.024L134.003 61.1373L134.031 61.2506L134.059 61.3637L134.087 61.4769L134.115 61.59L134.143 61.703L134.171 61.8159L134.199 61.9288L134.227 62.0417L134.255 62.1545L134.283 62.2672L134.311 62.3799L134.339 62.4925L134.367 62.605L134.395 62.7175L134.423 62.8299L134.451 62.9423L134.479 63.0546L134.507 63.1669L134.535 63.279L134.563 63.3912L134.591 63.5032L134.618 63.6152L134.646 63.7272L134.674 63.8391L134.702 63.9509L134.73 64.0626L134.757 64.1743L134.785 64.2859L134.813 64.3975L134.841 64.509L134.868 64.6205L134.896 64.7318L134.924 64.8431L134.951 64.9544L134.979 65.0656L135.006 65.1767L135.034 65.2877L135.062 65.3987L135.089 65.5097L135.117 65.6205L135.144 65.7313L135.172 65.842L135.199 65.9527L135.227 66.0633L135.254 66.1738L135.282 66.2843L135.309 66.3946L135.337 66.505L135.364 66.6152L135.391 66.7254L135.419 66.8355L135.446 66.9456L135.473 67.0556L135.501 67.1655L135.528 67.2753L135.555 67.3851L135.583 67.4948L135.61 67.6044L135.637 67.714L135.664 67.8235L135.692 67.9329L135.719 68.0423L135.746 68.1516L135.773 68.2608L135.8 68.3699L135.827 68.479L135.854 68.588L135.881 68.6969L135.908 68.8058L135.935 68.9145L135.963 69.0232L135.99 69.1319L136.016 69.2404L136.043 69.3489L136.07 69.4573L136.097 69.5657L136.124 69.6739L136.151 69.7821L136.178 69.8902L136.205 69.9983L136.232 70.1063L136.259 70.2142L136.285 70.322L136.312 70.4297L136.339 70.5374L136.366 70.645L136.392 70.7525L136.419 70.8599L136.446 70.9673L136.472 71.0745L136.499 71.1817L136.526 71.2889L136.552 71.3959L136.579 71.5029L136.605 71.6098L136.632 71.7166L136.658 71.8233L136.685 71.93L136.711 72.0366L136.738 72.1431L136.764 72.2495L136.791 72.3558L136.817 72.4621L136.844 72.5682L136.87 72.6743L136.896 72.7804L136.923 72.8863L136.949 72.9922L136.975 73.0979L137.002 73.2036L137.028 73.3092L137.054 73.4147L137.08 73.5202L137.106 73.6256L137.133 73.7308L137.159 73.836L137.185 73.9411L137.211 74.0462L137.237 74.1511L137.263 74.256L137.289 74.3607L137.315 74.4654L137.341 74.57L137.367 74.6746L137.393 74.779L137.419 74.8834L137.445 74.9876L137.471 75.0918L137.497 75.1959L137.523 75.2999L137.548 75.4038L137.574 75.5077L137.6 75.6114L137.626 75.7151L137.651 75.8186L137.677 75.9221L137.703 76.0255L137.729 76.1288L137.754 76.232L137.78 76.3352L137.805 76.4382L137.831 76.5412L137.857 76.644L137.882 76.7468L137.908 76.8495L137.933 76.9521L137.959 77.0546L137.984 77.157L138.01 77.2593L138.035 77.3616L138.06 77.4637L138.086 77.5658L138.111 77.6677L138.136 77.7696L138.162 77.8714L138.187 77.9731L138.212 78.0746L138.237 78.1761L138.263 78.2775L138.288 78.3789L138.313 78.4801L138.338 78.5812L138.363 78.6822L138.388 78.7832L138.413 78.884L138.438 78.9848L138.463 79.0854L138.488 79.186L138.513 79.2864L138.538 79.3868L138.563 79.4871L138.588 79.5872L138.613 79.6873L138.638 79.7873L138.663 79.8872L138.687 79.987L138.712 80.0867L138.737 80.1863L138.762 80.2858L138.786 80.3852L138.811 80.4845L138.836 80.5837L138.86 80.6828L138.885 80.7818L138.91 80.8807L138.934 80.9795L138.959 81.0782L138.983 81.1768L139.008 81.2753L139.032 81.3737L139.057 81.472L139.081 81.5702L139.105 81.6684L139.13 81.7664L139.154 81.8643L139.178 81.9621L139.203 82.0598L139.227 82.1574L139.251 82.2549L139.275 82.3523L139.3 82.4496L139.324 82.5468L139.348 82.6438L139.372 82.7408L139.396 82.8377L139.42 82.9345L139.444 83.0312L139.468 83.1277L139.492 83.2242L139.516 83.3205L139.54 83.4168L139.564 83.5129L139.588 83.609L139.612 83.7049L139.635 83.8008L139.659 83.8965L139.683 83.9921L139.707 84.0876L139.73 84.183L139.754 84.2783L139.778 84.3735L139.801 84.4686L139.825 84.5636L139.849 84.6585L139.872 84.7532L139.896 84.8479L139.919 84.9424L139.943 85.0369L139.966 85.1312L139.989 85.2254L140.013 85.3195L140.036 85.4135L140.06 85.5074L140.083 85.6012L140.106 85.6948L140.129 85.7884L140.153 85.8818L140.176 85.9752L140.199 86.0684L140.222 86.1615L140.245 86.2545L140.268 86.3474L140.291 86.4402L140.314 86.5329L140.337 86.6254L140.36 86.7178L140.383 86.8102L140.406 86.9024L140.429 86.9945L140.452 87.0865L140.475 87.1783L140.498 87.2701L140.52 87.3617L140.543 87.4533L140.566 87.5447L140.589 87.636L140.611 87.7272L140.634 87.8182L140.656 87.9092L140.679 88L140.702 88.0907L140.724 88.1813L140.747 88.2718L140.769 88.3622L140.791 88.4524L140.814 88.5426L140.836 88.6326L140.859 88.7225L140.881 88.8122L140.903 88.9019L140.925 88.9914L140.948 89.0809L140.97 89.1702L140.992 89.2593L141.014 89.3484L141.036 89.4374L141.058 89.5262L141.08 89.6149L141.102 89.7035L141.124 89.7919L141.146 89.8803L141.168 89.9685L141.19 90.0566L141.212 90.1446L141.234 90.2324L141.256 90.3202L141.277 90.4078L141.299 90.4953L141.321 90.5826L141.343 90.6699L141.364 90.757L141.386 90.844L141.407 90.9309L141.429 91.0176L141.451 91.1042L141.472 91.1907L141.494 91.2771L141.515 91.3634L141.536 91.4495L141.558 91.5355L141.579 91.6214L141.6 91.7071L141.622 91.7927L141.643 91.8782L141.664 91.9636L141.685 92.0488L141.707 92.134L141.728 92.2189L141.749 92.3038L141.77 92.3885L141.791 92.4731L141.812 92.5576L141.833 92.642L141.854 92.7262L141.875 92.8103L141.895 92.8943L141.916 92.9781L141.937 93.0618L141.958 93.1454L141.979 93.2288L141.999 93.3121L142.02 93.3953L142.041 93.4784L142.061 93.5613L142.082 93.6441L142.102 93.7267L142.123 93.8093L142.143 93.8917L142.164 93.9739L142.184 94.0561L142.205 94.1381L142.225 94.2199L142.245 94.3017L142.266 94.3833L142.286 94.4648L142.306 94.5461L142.326 94.6273L142.346 94.7084L142.366 94.7893L142.387 94.8701L142.407 94.9508L142.427 95.0313L142.447 95.1117L142.467 95.1919L142.486 95.2721L142.506 95.3521L142.526 95.4319L142.546 95.5116L142.566 95.5912L142.586 95.6706L142.605 95.7499L142.625 95.8291L142.645 95.9081L142.664 95.987L142.684 96.0658L142.703 96.1444L142.723 96.2229L142.742 96.3012L142.762 96.3794L142.781 96.4575L142.8 96.5354L142.82 96.6132L142.839 96.6908L142.858 96.7683L142.878 96.8457L142.897 96.9229L142.916 97L142.935 97.0769L142.954 97.1537L142.973 97.2304L142.992 97.3069L143.011 97.3833L143.03 97.4595L143.049 97.5356L143.068 97.6116L143.087 97.6874L143.106 97.763L143.124 97.8385L143.143 97.9139L143.162 97.9891L143.18 98.0642L143.199 98.1392L143.218 98.214L143.236 98.2886L143.255 98.3631L143.273 98.4375L143.292 98.5117L143.31 98.5858L143.328 98.6597L143.347 98.7335L143.365 98.8071L143.383 98.8806L143.402 98.954L143.42 99.0272L143.438 99.1002L143.456 99.1731L143.474 99.2459L143.492 99.3185L143.51 99.3909L143.528 99.4633L143.546 99.5354L143.564 99.6074L143.582 99.6793L143.6 99.751L143.617 99.8226L143.635 99.894L143.653 99.9652L143.671 100.036L143.688 100.107L143.706 100.178L143.723 100.249L143.741 100.319L143.758 100.39L143.776 100.46L143.793 100.53L143.811 100.6L143.828 100.67L143.845 100.739L143.863 100.809L143.88 100.878L143.897 100.947L143.914 101.016L143.931 101.085L143.948 101.154L143.965 101.222L143.982 101.291L143.999 101.359L144.016 101.427L144.033 101.495L144.05 101.562L144.067 101.63L144.083 101.698L144.1 101.765L144.117 101.832L144.134 101.899L144.15 101.966L144.167 102.032L144.183 102.099L144.2 102.165L144.216 102.231L144.233 102.297L144.249 102.363L144.265 102.429L144.282 102.495L144.298 102.56L144.314 102.625L144.33 102.69L144.346 102.755L144.362 102.82L144.379 102.885L144.395 102.949L144.411 103.013L144.426 103.077L144.442 103.141L144.458 103.205L144.474 103.269L144.49 103.332L144.506 103.396L144.521 103.459L144.537 103.522L144.552 103.585L144.568 103.647L144.584 103.71L144.599 103.772L144.615 103.834L144.63 103.896L144.645 103.958L144.661 104.02L144.676 104.081L144.691 104.143L144.706 104.204L144.722 104.265L144.737 104.326L144.752 104.387L144.767 104.447L144.782 104.508L144.797 104.568L144.812 104.628L144.827 104.688L144.841 104.747L144.856 104.807L144.871 104.866L144.886 104.925L144.9 104.985L144.915 105.043L144.93 105.102L144.944 105.161L144.959 105.219L144.973 105.277L144.988 105.335L145.002 105.393L145.016 105.451L145.031 105.508L145.045 105.566L145.059 105.623L145.073 105.68L145.087 105.737L145.101 105.793L145.115 105.85L145.129 105.906L145.143 105.962L145.157 106.018L145.171 106.074L145.185 106.13C145.936 109.15 143.179 112.118 139.993 111.717C125.37 109.874 98.7334 108.544 74.4577 110.88C70.2596 111.283 66.0549 111.805 61.9559 112.314C59.6114 112.605 57.3016 112.891 55.0473 113.149C48.8245 113.861 42.9943 114.358 37.8472 114.159C32.6939 113.961 28.309 113.067 24.929 111.064C21.5839 109.082 19.1533 105.973 17.9604 101.173L17.9503 101.132L17.9402 101.092L17.9302 101.052L17.9203 101.012L17.9104 100.972L17.9007 100.933L17.891 100.894L17.8814 100.855L17.8718 100.817L17.8624 100.779L17.853 100.741L17.8437 100.703L17.8344 100.666L17.8253 100.629L17.8162 100.593L17.8072 100.557L17.7983 100.521L17.7894 100.485L17.7806 100.45L17.7719 100.415L17.7632 100.38L17.7547 100.345L17.7462 100.311L17.7377 100.277L17.7294 100.243L17.7211 100.21L17.7128 100.177L17.7047 100.144L17.6966 100.112L17.6886 100.079L17.6806 100.047L17.6727 100.016L17.6649 99.9841L17.6571 99.9529L17.6494 99.9219L17.6418 99.8913L17.6343 99.8608L17.6268 99.8306L17.6193 99.8007L17.6119 99.7711L17.6046 99.7416L17.5974 99.7125L17.5902 99.6835L17.5831 99.6549L17.576 99.6264L17.569 99.5982L17.562 99.5703L17.5552 99.5426L17.5483 99.5151L17.5416 99.4879L17.5348 99.4609L17.5282 99.4341L17.5216 99.4075L17.515 99.3812L17.5086 99.3551L17.5021 99.3292L17.4958 99.3036L17.4894 99.2781L17.4832 99.2529L17.4769 99.2279L17.4708 99.2031L17.4647 99.1786L17.4586 99.1542L17.4526 99.13L17.4467 99.1061L17.4408 99.0823L17.4349 99.0588L17.4291 99.0355L17.4234 99.0123L17.4177 98.9894L17.412 98.9666L17.4064 98.9441L17.4008 98.9217L17.3953 98.8995L17.3899 98.8775L17.3844 98.8557L17.3791 98.8341L17.3737 98.8127L17.3685 98.7914L17.3632 98.7704L17.358 98.7495L17.3529 98.7287L17.3478 98.7082L17.3427 98.6878L17.3377 98.6676L17.3327 98.6476L17.3278 98.6277L17.3229 98.608L17.318 98.5884L17.3132 98.5691L17.3084 98.5498L17.3037 98.5307L17.299 98.5118L17.2943 98.4931L17.2897 98.4744L17.2851 98.456L17.2805 98.4377L17.276 98.4195L17.2715 98.4015L17.2671 98.3836L17.2627 98.3658L17.2583 98.3482L17.254 98.3307L17.2497 98.3134L17.2454 98.2962L17.2411 98.2791L17.2369 98.2622L17.2327 98.2454L17.2286 98.2287L17.2245 98.2121L17.2204 98.1956L17.2163 98.1793L17.2123 98.1631L17.2083 98.147L17.2043 98.131L17.2004 98.1152L17.1965 98.0994L17.1926 98.0837L17.1887 98.0682L17.1849 98.0528L17.1811 98.0374L17.1773 98.0222L17.1735 98.007L17.1698 97.992L17.1661 97.9771L17.1624 97.9622L17.1587 97.9475L17.1551 97.9328L17.1514 97.9182L17.1478 97.9037L17.1442 97.8893L17.1407 97.875L17.1371 97.8607L17.1336 97.8466L17.1301 97.8325L17.1266 97.8184L17.1232 97.8045L17.1197 97.7906L17.1163 97.7768L17.1129 97.7631L17.1095 97.7494L17.1061 97.7358L17.1027 97.7223L17.0994 97.7088L17.096 97.6954L17.0927 97.682L17.0894 97.6687L17.0861 97.6554L17.0828 97.6422L17.0796 97.6291L17.0763 97.616L17.0731 97.6029L17.0698 97.5899L17.0666 97.5769L17.0634 97.564L17.0602 97.5511L17.057 97.5382L17.0538 97.5254L17.0506 97.5126L17.0474 97.4998L17.0443 97.4871L17.0411 97.4743L17.038 97.4617L17.0348 97.449L17.0317 97.4364L17.0285 97.4237L17.0254 97.4111L17.0223 97.3985L17.0191 97.386L17.016 97.3734L17.0129 97.3609L17.0098 97.3483L17.0067 97.3358L17.0036 97.3232L17.0004 97.3107L16.9973 97.2982L16.9942 97.2857L16.9911 97.2731L16.988 97.2606L16.9849 97.248L16.9817 97.2355L16.9786 97.2229L16.9755 97.2104L16.9724 97.1978L16.9692 97.1852L16.9661 97.1726L16.963 97.1599L16.9598 97.1473L16.9567 97.1346L16.9535 97.1219L16.9503 97.1092L16.9472 97.0964L16.944 97.0836L16.9408 97.0708L16.9376 97.0579L16.9344 97.045L16.9312 97.0321L16.928 97.0191L16.9247 97.0061L16.9215 96.9931L16.9182 96.98L16.915 96.9668L16.9117 96.9536L16.9084 96.9404L16.9051 96.9271L16.9018 96.9137L16.8984 96.9003L16.8951 96.8868L16.8917 96.8733L16.8883 96.8597L16.885 96.8461L16.8815 96.8323L16.8781 96.8186L16.8747 96.8047L16.8712 96.7908L16.8677 96.7768L16.8642 96.7627L16.8607 96.7485L16.8572 96.7343L16.8536 96.72L16.85 96.7056L16.8464 96.6911L16.8428 96.6766L16.8392 96.6619L16.8355 96.6472L16.8318 96.6324L16.8281 96.6174L16.8244 96.6024L16.8206 96.5873L16.8169 96.5721L16.8131 96.5568L16.8092 96.5413L16.8054 96.5258L16.8015 96.5102L16.7976 96.4945L16.7936 96.4786L16.7897 96.4627L16.7857 96.4466L16.7816 96.4304L16.7776 96.4141L16.7735 96.3977L16.7694 96.3811L16.7653 96.3645L16.7611 96.3477L16.7569 96.3307L16.7526 96.3137L16.7484 96.2965L16.7441 96.2792L16.7397 96.2618L16.7354 96.2442L16.731 96.2265L16.7265 96.2086L16.7221 96.1906L16.7175 96.1725L16.713 96.1542L16.7084 96.1358L16.7038 96.1172L16.6991 96.0984L16.6944 96.0796L16.6897 96.0605L16.6849 96.0413L16.6801 96.022L16.6753 96.0025L16.6704 95.9828L16.6655 95.9629L16.6605 95.9429L16.6555 95.9228L16.6504 95.9024L16.6453 95.8819L16.6402 95.8612L16.635 95.8404L16.6298 95.8193L16.6245 95.7981L16.6192 95.7767L16.6138 95.7552L16.6084 95.7334L16.603 95.7114L16.5975 95.6893L16.5919 95.667L16.5863 95.6445L16.5807 95.6218L16.575 95.5989L16.5692 95.5758L16.5634 95.5525L16.5576 95.529L16.5517 95.5053L16.5458 95.4814L16.5398 95.4573L16.5337 95.4329L16.5276 95.4084L16.5215 95.3837L16.5153 95.3587L16.509 95.3335L16.5027 95.3082L16.4964 95.2825L16.4899 95.2567L16.4835 95.2307L16.4769 95.2044L16.4703 95.1779L16.4637 95.1512L16.457 95.1242L16.4502 95.097L16.4434 95.0696L16.4366 95.0419L16.4296 95.014L16.4226 94.9859L16.4156 94.9575L16.4085 94.9289L16.4013 94.9L16.394 94.8709L16.3867 94.8415L16.3794 94.8119L16.372 94.7821L16.3645 94.7519L16.3569 94.7216L16.3493 94.6909L16.3416 94.66L16.3339 94.6289L16.3261 94.5975L16.3182 94.5658L16.3103 94.5338L16.3023 94.5016L16.2942 94.4691L16.286 94.4363L16.2778 94.4033L16.2695 94.37L16.2612 94.3364L16.2528 94.3025L16.2443 94.2684L16.2357 94.2339L16.2271 94.1992L16.2184 94.1642L16.2096 94.1289L16.2008 94.0933L16.1919 94.0574L16.1829 94.0212L16.1738 93.9847L16.1647 93.948L16.1554 93.9109L16.1462 93.8735L16.1368 93.8358L16.1273 93.7978L16.1178 93.7595L16.1082 93.7209L16.0986 93.682L16.0888 93.6428L16.079 93.6032L16.0691 93.5634L16.0591 93.5232L16.049 93.4827L16.0389 93.4418L16.0286 93.4007L16.0183 93.3592L16.0079 93.3174L15.9975 93.2753L15.9869 93.2328L15.9763 93.19L15.9655 93.1468L15.9547 93.1034L15.9438 93.0596L15.9329 93.0154L15.9218 92.9709L15.9107 92.9261L15.8994 92.8809L15.8881 92.8353L15.8767 92.7894L15.8652 92.7432L15.8536 92.6966L15.842 92.6496L15.8302 92.6023L15.8184 92.5546L15.8064 92.5066L15.7944 92.4582L15.7823 92.4095L15.7701 92.3603L15.7578 92.3108L15.7454 92.261L15.7329 92.2107L15.7203 92.1601L15.7076 92.1091L15.6949 92.0577L15.682 92.006L15.669 91.9539L15.656 91.9013L15.6428 91.8484L15.6296 91.7952L15.6162 91.7415L15.6028 91.6874L15.5893 91.6329L15.5756 91.5781L15.5619 91.5228L15.5481 91.4672L15.5341 91.4111L15.5201 91.3547L15.506 91.2978L15.4917 91.2405L15.4774 91.1829L15.463 91.1248L15.4484 91.0663L15.4338 91.0074L15.4191 90.9481L15.4042 90.8883L15.3893 90.8282L15.3742 90.7676L15.359 90.7066L15.3438 90.6451L15.3284 90.5833L15.3129 90.521L15.2973 90.4583L15.2816 90.3952L15.2658 90.3316L15.2499 90.2676L15.2339 90.2031L15.2178 90.1382L15.2015 90.0729L15.1852 90.0071L15.1687 89.9409L15.1522 89.8742L15.1355 89.8071L15.1187 89.7395L15.1018 89.6715L15.0848 89.6031L15.0676 89.5341L15.0504 89.4647L15.033 89.3949L15.0156 89.3246L14.998 89.2538L14.9803 89.1826L14.9624 89.1109L14.9445 89.0387L14.9264 88.9661L14.9083 88.893L14.89 88.8194L14.8716 88.7453L14.853 88.6708L14.8344 88.5957L14.8156 88.5202L14.7968 88.4443L14.7777 88.3678L14.7586 88.2908L14.7394 88.2134L14.72 88.1354L14.7005 88.057L14.6809 87.9781L14.6611 87.8986L14.6413 87.8187L14.6213 87.7383L14.6012 87.6574L14.5809 87.5759L14.5606 87.494L14.5401 87.4115L14.5195 87.3286L14.4987 87.2451L14.4778 87.1611L14.4568 87.0766L14.4357 86.9916L14.4145 86.9061L14.3931 86.8201L14.3716 86.7335L14.3499 86.6464L14.3281 86.5588L14.3062 86.4706L14.2842 86.3819L14.262 86.2927L14.2397 86.203L14.2173 86.1127L14.1947 86.0219L14.172 85.9305L14.1491 85.8386L14.1262 85.7461L14.103 85.6532L14.0798 85.5596L14.0564 85.4655L14.0329 85.3709L14.0092 85.2757L13.9854 85.18L13.9615 85.0837L13.9374 84.9868L13.9132 84.8894L13.8889 84.7914L13.8644 84.6929L13.8397 84.5938L13.815 84.4941L13.7901 84.3939L13.765 84.2931L13.7398 84.1917L13.7145 84.0897L13.689 83.9872L13.6634 83.8841L13.6376 83.7804L13.6117 83.6761L13.5856 83.5713L13.5594 83.4658L13.533 83.3598L13.5065 83.2532L13.4799 83.146L13.4531 83.0382L13.4262 82.9298L13.3991 82.8208L13.3718 82.7112L13.3445 82.601L13.3169 82.4902L13.2892 82.3788L13.2614 82.2668L13.2334 82.1542L13.2053 82.0409L13.177 81.9271L13.1485 81.8127L13.1199 81.6976L13.0912 81.5819L13.0623 81.4656L13.0332 81.3487C11.8485 76.582 12.7092 72.426 14.9838 68.6867C17.2758 64.9187 21.0187 61.5527 25.6207 58.4591C32.5246 53.8179 41.1778 49.901 49.408 46.1756C52.1797 44.921 54.9035 43.6881 57.4963 42.4565C79.3181 32.0915 101.96 16.5239 114.787 7.45718C117.194 5.75555 120.546 6.99476 121.255 9.8476L121.27 9.90712L121.285 9.96686L121.299 10.0268L121.314 10.087L121.329 10.1474L121.344 10.208L121.36 10.2688L121.375 10.3298L121.39 10.3911L121.405 10.4526L121.421 10.5142L121.436 10.5761L121.451 10.6382L121.467 10.7005L121.482 10.7631L121.498 10.8258L121.514 10.8888L121.529 10.9519L121.545 11.0153L121.561 11.0789L121.577 11.1427L121.593 11.2067L121.609 11.2709L121.625 11.3353L121.641 11.4L121.657 11.4648L121.673 11.5298L121.689 11.5951L121.705 11.6606L121.722 11.7262L121.738 11.7921L121.755 11.8582L121.771 11.9245L121.788 11.9909L121.804 12.0576L121.821 12.1245L121.837 12.1916L121.854 12.2589L121.871 12.3264L121.888 12.3942L121.905 12.4621L121.922 12.5302L121.939 12.5985L121.956 12.667L121.973 12.7357L121.99 12.8046L122.007 12.8738L122.024 12.9431L122.041 13.0126L122.059 13.0823L122.076 13.1522L122.094 13.2223L122.111 13.2927L122.129 13.3632L122.146 13.4339L122.164 13.5048L122.181 13.5759L122.199 13.6472L122.217 13.7186L122.235 13.7903L122.253 13.8622L122.271 13.9343L122.289 14.0065L122.307 14.079L122.325 14.1517L122.343 14.2245L122.361 14.2975L122.379 14.3708L122.397 14.4442L122.416 14.5178L122.434 14.5916L122.452 14.6656L122.471 14.7398L122.489 14.8141L122.508 14.8887L122.526 14.9635L122.545 15.0384L122.564 15.1135L122.582 15.1888L122.601 15.2643L122.62 15.34L122.639 15.4159L122.658 15.492L122.677 15.5682L122.696 15.6447L122.715 15.7213L122.734 15.7981L122.753 15.8751L122.772 15.9522L122.791 16.0296L122.811 16.1071L122.83 16.1849L122.849 16.2628L122.869 16.3408L122.888 16.4191L122.908 16.4976L122.927 16.5762L122.947 16.655L122.966 16.734L122.986 16.8132L123.006 16.8925L123.026 16.972L123.045 17.0517L123.065 17.1316L123.085 17.2117L123.105 17.2919L123.125 17.3723L123.145 17.4529L123.165 17.5337L123.185 17.6147L123.205 17.6958L123.226 17.7771L123.246 17.8585L123.266 17.9402L123.287 18.022L123.307 18.104L123.327 18.1862L123.348 18.2685L123.368 18.351L123.389 18.4337L123.409 18.5166L123.43 18.5996L123.451 18.6828L123.472 18.7662L123.492 18.8497L123.513 18.9334L123.534 19.0173L123.555 19.1013L123.576 19.1855L123.597 19.2699L123.618 19.3545L123.639 19.4392L123.66 19.5241L123.681 19.6091L123.702 19.6943L123.723 19.7797L123.745 19.8653L123.766 19.951L123.787 20.0369L123.809 20.1229L123.83 20.2091L123.852 20.2955L123.873 20.382L123.895 20.4687L123.916 20.5556L123.938 20.6426L123.96 20.7298L123.981 20.8171L124.003 20.9047L124.025 20.9923L124.047 21.0802L124.068 21.1681L124.09 21.2563L124.112 21.3446L124.134 21.4331L124.156 21.5217L124.178 21.6105L124.201 21.6994L124.223 21.7885L124.245 21.8777L124.267 21.9672L124.289 22.0567L124.312 22.1464L124.334 22.2363L124.356 22.3263L124.379 22.4165L124.401 22.5069L124.424 22.5974L124.446 22.688L124.469 22.7788L124.491 22.8698L124.514 22.9609L124.537 23.0521L124.559 23.1435L124.582 23.2351L124.605 23.3268L124.628 23.4186L124.651 23.5107L124.674 23.6028L124.697 23.6951L124.72 23.7876L124.743 23.8802L124.766 23.9729L124.789 24.0658L124.812 24.1589L124.835 24.2521L124.858 24.3454L124.881 24.4389L124.905 24.5325L124.928 24.6263L124.951 24.7202L124.975 24.8143L124.998 24.9085L125.022 25.0029L125.045 25.0974L125.069 25.192L125.092 25.2868L125.116 25.3817L125.139 25.4768L125.163 25.572L125.187 25.6673L125.21 25.7628L125.234 25.8585L125.258 25.9542L125.282 26.0501L125.306 26.1462L125.33 26.2424L125.354 26.3387L125.378 26.4352L125.402 26.5318L125.426 26.6285L125.45 26.7254L125.474 26.8224L125.498 26.9195L125.522 27.0168L125.546 27.1143L125.571 27.2118L125.595 27.3095L125.619 27.4073L125.644 27.5053L125.668 27.6034L125.692 27.7016L125.717 27.8L125.741 27.8984L125.766 27.9971L125.79 28.0958L125.815 28.1947L125.84 28.2937L125.864 28.3929L125.889 28.4921L125.914 28.5915L125.938 28.6911L125.963 28.7907L125.988 28.8905L126.013 28.9904L126.038 29.0905L126.062 29.1907L126.087 29.291L126.112 29.3914L126.137 29.4919L126.162 29.5926L126.187 29.6934L126.212 29.7944L126.238 29.8954L126.263 29.9966L126.288 30.0979L126.313 30.1993L126.338 30.3009L126.364 30.4025L126.389 30.5043L126.414 30.6062L126.44 30.7083L126.465 30.8104L126.49 30.9127L126.516 31.0151L126.541 31.1176L126.567 31.2203L126.592 31.323L126.618 31.4259L126.644 31.5289L126.669 31.632L126.695 31.7353L126.721 31.8386L126.746 31.9421L126.772 32.0457L126.798 32.1494L126.824 32.2532L126.849 32.3571L126.875 32.4612L126.901 32.5653L126.927 32.6696L126.953 32.774L126.979 32.8785L127.005 32.9831L127.031 33.0878L127.057 33.1927L127.083 33.2976L127.109 33.4027L127.135 33.5079L127.162 33.6131L127.188 33.7185L127.214 33.824L127.24 33.9297L127.267 34.0354L127.293 34.1412L127.319 34.2472L127.346 34.3532L127.372 34.4594L127.398 34.5656L127.425 34.672L127.451 34.7785L127.478 34.8851L127.504 34.9918L127.531 35.0986L127.557 35.2055L127.584 35.3125L127.611 35.4196L127.637 35.5268L127.664 35.6341L127.691 35.7416L127.717 35.8491L127.744 35.9567L127.771 36.0644L127.798 36.1723L127.824 36.2802L127.851 36.3882L127.878 36.4964L127.905 36.6046L127.932 36.7129L127.959 36.8214L127.986 36.9299L128.013 37.0385L128.04 37.1473L128.067 37.2561L128.094 37.365L128.121 37.474L128.148 37.5832L128.175 37.6924L128.203 37.8017L128.23 37.9111L128.257 38.0206L128.284 38.1302L128.312 38.2399L128.339 38.3497L128.366 38.4595L128.393 38.5695L128.421 38.6796L128.448 38.7897L128.476 38.9L128.503 39.0103L128.53 39.1208L128.558 39.2313L128.585 39.3419L128.613 39.4526L128.64 39.5634L128.668 39.6743L128.696 39.7853L128.723 39.8963L128.751 40.0075L128.779 40.1187L128.806 40.23L128.834 40.3414L128.862 40.4529L128.889 40.5645L128.917 40.6762L128.945 40.788L128.973 40.8998L129 41.0117L129.028 41.1237L129.056 41.2358L129.084 41.348L129.112 41.4603L129.14 41.5726L129.168 41.685L129.196 41.7976L129.224 41.9101L129.252 42.0228L129.28 42.1356L129.308 42.2484L129.336 42.3613L129.364 42.4743L129.392 42.5874L129.42 42.7005L129.448 42.8138L129.477 42.9271L129.505 43.0405L129.533 43.1539L129.561 43.2675L129.589 43.3811L129.618 43.4948L129.646 43.6086L129.674 43.7224L129.703 43.8364L129.731 43.9503L129.759 44.0644L129.788 44.1786L129.816 44.2928L129.844 44.4071L129.873 44.5215L129.901 44.6359L129.93 44.7504L129.958 44.865L129.987 44.9796L130.015 45.0944L130.044 45.2092L130.072 45.324L130.101 45.439L130.129 45.554L130.158 45.6691L130.187 45.7842L130.215 45.8994L130.244 46.0147L130.273 46.13L130.301 46.2455L130.33 46.3609L130.359 46.4765L130.387 46.5921L130.416 46.7078L130.445 46.8235L130.474 46.9393L130.503 47.0552L130.531 47.1712L130.56 47.2872L130.589 47.4032L130.618 47.5194L130.647 47.6356L130.676 47.7518L130.705 47.8681L130.734 47.9845L130.762 48.101L130.791 48.2175L130.82 48.334L130.849 48.4506L130.878 48.5673L130.907 48.6841L130.936 48.8009L130.965 48.9177L130.995 49.0346L131.024 49.1516L131.053 49.2686L131.082 49.3857L131.111 49.5029L131.14 49.6201L131.169 49.7373L131.198 49.8546L131.227 49.972L131.257 50.0894L131.286 50.2069L131.315 50.3244L131.344 50.442L131.374 50.5596L131.403 50.6773L131.432 50.7951L131.461 50.9129L131.491 51.0307L131.52 51.1486L131.549 51.2666L131.579 51.3845L131.608 51.5026L131.637 51.6207L131.667 51.7388L131.696 51.857L131.725 51.9753L131.755 52.0936L131.784 52.2119L131.814 52.3303L131.843 52.4487L131.872 52.5672L131.902 52.6857L131.931 52.8043L131.961 52.9229L131.99 53.0416L132.02 53.1603L132.049 53.279L132.079 53.3978L132.108 53.5167L132.138 53.6356L132.168 53.7545L132.197 53.8734L132.227 53.9925L132.256 54.1115L132.286 54.2306L132.316 54.3497L132.345 54.4689L132.375 54.5881L132.404 54.7074L132.434 54.8267L132.464 54.946L132.493 55.0654L132.523 55.1848L132.553 55.3042L132.582 55.4237L132.612 55.5432L132.642 55.6628L132.672 55.7824L132.701 55.902L132.731 56.0217L132.761 56.1414L132.791 56.2611L132.82 56.3809L132.85 56.5007L132.88 56.6205L132.91 56.7404L132.94 56.8603L132.969 56.9802L132.999 57.1002L133.029 57.2202L133.059 57.3402L133.089 57.4603L133.118 57.5804L133.148 57.7005L133.178 57.8206L133.208 57.9408L133.238 58.061L133.268 58.1813L133.298 58.3015L133.328 58.4218L133.358 58.5421L133.387 58.6625L133.417 58.7829L133.447 58.9033L133.477 59.0237L133.507 59.1441L133.537 59.2646L133.567 59.3851L133.597 59.5057L133.627 59.6262L133.657 59.7468L133.687 59.8674L133.717 59.988L133.747 60.1086L133.777 60.2293Z" fill="#EFC9CD" stroke="#390D0E" stroke-width="1.6875"/>
<g id="Intersect_2">
<mask id="path-7-inside-2_1000_40972" fill="white">
<path fill-rule="evenodd" clip-rule="evenodd" d="M37.9757 115.017L23.9511 58.5893C31.0963 53.5428 40.3857 49.3382 49.1105 45.3892C51.083 44.4964 53.0266 43.6167 54.91 42.7433L72.1163 111.972C68.7386 112.33 65.3767 112.747 62.0744 113.157C53.3583 114.238 45.057 115.269 37.9757 115.017Z"/>
</mask>
<path fill-rule="evenodd" clip-rule="evenodd" d="M37.9757 115.017L23.9511 58.5893C31.0963 53.5428 40.3857 49.3382 49.1105 45.3892C51.083 44.4964 53.0266 43.6167 54.91 42.7433L72.1163 111.972C68.7386 112.33 65.3767 112.747 62.0744 113.157C53.3583 114.238 45.057 115.269 37.9757 115.017Z" fill="#FBF2F3"/>
<path d="M37.9757 115.017L36.338 115.424L36.6447 116.658L37.9156 116.703L37.9757 115.017ZM23.9511 58.5893L22.9776 57.2109L22.0351 57.8766L22.3134 58.9963L23.9511 58.5893ZM49.1105 45.3892L49.8064 46.9265L49.1105 45.3892ZM54.91 42.7433L56.5477 42.3362L56.0546 40.3523L54.2 41.2124L54.91 42.7433ZM72.1163 111.972L72.294 113.65L74.2215 113.446L73.754 111.565L72.1163 111.972ZM62.0744 113.157L61.8666 111.482L61.8666 111.482L62.0744 113.157ZM39.6133 114.61L25.5887 58.1823L22.3134 58.9963L36.338 115.424L39.6133 114.61ZM24.9246 59.9677C31.9126 55.0322 41.0422 50.8934 49.8064 46.9265L48.4147 43.8518C39.7292 47.783 30.28 52.0534 22.9776 57.2109L24.9246 59.9677ZM49.8064 46.9265C51.7775 46.0344 53.7282 45.1514 55.6199 44.2742L54.2 41.2124C52.3249 42.082 50.3885 42.9584 48.4147 43.8518L49.8064 46.9265ZM53.2723 43.1503L70.4786 112.379L73.754 111.565L56.5477 42.3362L53.2723 43.1503ZM71.9386 110.294C68.5434 110.654 65.1665 111.073 61.8666 111.482L62.2822 114.831C65.587 114.421 68.9339 114.006 72.294 113.65L71.9386 110.294ZM61.8666 111.482C53.11 112.569 44.9547 113.576 38.0357 113.33L37.9156 116.703C45.1593 116.961 53.6066 115.908 62.2822 114.831L61.8666 111.482Z" fill="#390D0E" mask="url(#path-7-inside-2_1000_40972)"/>
</g>
<g id="Group 31">
<path id="Vector 33" d="M207.808 43.4345L177.959 51.8231" stroke="#390D0E" stroke-width="5.18822" stroke-linecap="round" stroke-linejoin="round"/>
<path id="Vector 34" d="M182.06 7.90546L163.153 32.4791" stroke="#390D0E" stroke-width="5.18822" stroke-linecap="round" stroke-linejoin="round"/>
<path id="Vector 35" d="M207.227 82.5827L177.369 74.2263" stroke="#390D0E" stroke-width="5.18822" stroke-linecap="round" stroke-linejoin="round"/>
</g>
</g>
</svg>
