<svg width="25" height="25" viewBox="0 0 25 25" fill="none" xmlns="http://www.w3.org/2000/svg">
<g id="Icon Left">
<path id="Vector" d="M17.9062 20.5H22.9062V18.5C22.9062 17.8765 22.7119 17.2686 22.3504 16.7606C21.9889 16.2527 21.4781 15.87 20.889 15.6658C20.2999 15.4615 19.6619 15.4459 19.0635 15.621C18.4651 15.7962 17.9362 16.1534 17.5502 16.643M17.9062 20.5H7.90625M17.9062 20.5V18.5C17.9062 17.844 17.7802 17.217 17.5502 16.643M17.5502 16.643C17.1789 15.715 16.538 14.9195 15.7102 14.3591C14.8825 13.7988 13.9058 13.4993 12.9062 13.4993C11.9067 13.4993 10.93 13.7988 10.1023 14.3591C9.2745 14.9195 8.63361 15.715 8.26225 16.643M7.90625 20.5H2.90625V18.5C2.9063 17.8765 3.10059 17.2686 3.46211 16.7606C3.82364 16.2527 4.33444 15.87 4.9235 15.6658C5.51257 15.4615 6.15063 15.4459 6.74899 15.621C7.34735 15.7962 7.87628 16.1534 8.26225 16.643M7.90625 20.5V18.5C7.90625 17.844 8.03225 17.217 8.26225 16.643M15.9062 7.5C15.9062 8.29565 15.5902 9.05871 15.0276 9.62132C14.465 10.1839 13.7019 10.5 12.9062 10.5C12.1106 10.5 11.3475 10.1839 10.7849 9.62132C10.2223 9.05871 9.90625 8.29565 9.90625 7.5C9.90625 6.70435 10.2223 5.94129 10.7849 5.37868C11.3475 4.81607 12.1106 4.5 12.9062 4.5C13.7019 4.5 14.465 4.81607 15.0276 5.37868C15.5902 5.94129 15.9062 6.70435 15.9062 7.5ZM21.9062 10.5C21.9062 11.0304 21.6955 11.5391 21.3205 11.9142C20.9454 12.2893 20.4367 12.5 19.9062 12.5C19.3758 12.5 18.8671 12.2893 18.492 11.9142C18.117 11.5391 17.9062 11.0304 17.9062 10.5C17.9062 9.96957 18.117 9.46086 18.492 9.08579C18.8671 8.71071 19.3758 8.5 19.9062 8.5C20.4367 8.5 20.9454 8.71071 21.3205 9.08579C21.6955 9.46086 21.9062 9.96957 21.9062 10.5ZM7.90625 10.5C7.90625 11.0304 7.69554 11.5391 7.32046 11.9142C6.94539 12.2893 6.43668 12.5 5.90625 12.5C5.37582 12.5 4.86711 12.2893 4.49204 11.9142C4.11696 11.5391 3.90625 11.0304 3.90625 10.5C3.90625 9.96957 4.11696 9.46086 4.49204 9.08579C4.86711 8.71071 5.37582 8.5 5.90625 8.5C6.43668 8.5 6.94539 8.71071 7.32046 9.08579C7.69554 9.46086 7.90625 9.96957 7.90625 10.5Z" stroke="#6B6F80" stroke-width="1.5" stroke-linecap="round" stroke-linejoin="round"/>
</g>
</svg>
