<svg width="25" height="25" viewBox="0 0 25 25" fill="none" xmlns="http://www.w3.org/2000/svg">
<g id="Icon Left">
<path id="Vector" d="M19.9062 11.5H5.90625M19.9062 11.5C20.4367 11.5 20.9454 11.7107 21.3205 12.0858C21.6955 12.4609 21.9062 12.9696 21.9062 13.5V19.5C21.9062 20.0304 21.6955 20.5391 21.3205 20.9142C20.9454 21.2893 20.4367 21.5 19.9062 21.5H5.90625C5.37582 21.5 4.86711 21.2893 4.49204 20.9142C4.11696 20.5391 3.90625 20.0304 3.90625 19.5V13.5C3.90625 12.9696 4.11696 12.4609 4.49204 12.0858C4.86711 11.7107 5.37582 11.5 5.90625 11.5M19.9062 11.5V9.5C19.9062 8.96957 19.6955 8.46086 19.3205 8.08579C18.9454 7.71071 18.4367 7.5 17.9062 7.5M5.90625 11.5V9.5C5.90625 8.96957 6.11696 8.46086 6.49204 8.08579C6.86711 7.71071 7.37582 7.5 7.90625 7.5M17.9062 7.5V5.5C17.9062 4.96957 17.6955 4.46086 17.3205 4.08579C16.9454 3.71071 16.4367 3.5 15.9062 3.5H9.90625C9.37582 3.5 8.86711 3.71071 8.49204 4.08579C8.11696 4.46086 7.90625 4.96957 7.90625 5.5V7.5M17.9062 7.5H7.90625" stroke="#6B6F80" stroke-width="1.5" stroke-linecap="round" stroke-linejoin="round"/>
</g>
</svg>
