<svg width="25" height="25" viewBox="0 0 25 25" fill="none" xmlns="http://www.w3.org/2000/svg">
<g id="Icon Left">
<path id="Vector" d="M18.5633 17.1567L14.3203 21.3997C14.1347 21.5854 13.9144 21.7328 13.6718 21.8333C13.4293 21.9339 13.1693 21.9856 12.9068 21.9856C12.6442 21.9856 12.3842 21.9339 12.1417 21.8333C11.8992 21.7328 11.6788 21.5854 11.4933 21.3997L7.24925 17.1567C6.13047 16.0379 5.36859 14.6124 5.05994 13.0606C4.75129 11.5087 4.90974 9.90022 5.51526 8.43844C6.12077 6.97665 7.14615 5.72725 8.46173 4.84821C9.77732 3.96918 11.324 3.5 12.9063 3.5C14.4885 3.5 16.0352 3.96918 17.3508 4.84821C18.6664 5.72725 19.6917 6.97665 20.2973 8.43844C20.9028 9.90022 21.0612 11.5087 20.7526 13.0606C20.4439 14.6124 19.682 16.0379 18.5633 17.1567V17.1567Z" stroke="#6B6F80" stroke-width="1.5" stroke-linecap="round" stroke-linejoin="round"/>
<path id="Vector_2" d="M15.0276 13.6213C15.5902 13.0587 15.9062 12.2956 15.9062 11.5C15.9062 10.7044 15.5902 9.94129 15.0276 9.37868C14.465 8.81607 13.7019 8.5 12.9062 8.5C12.1106 8.5 11.3475 8.81607 10.7849 9.37868C10.2223 9.94129 9.90625 10.7044 9.90625 11.5C9.90625 12.2956 10.2223 13.0587 10.7849 13.6213C11.3475 14.1839 12.1106 14.5 12.9062 14.5C13.7019 14.5 14.465 14.1839 15.0276 13.6213Z" stroke="#6B6F80" stroke-width="1.5" stroke-linecap="round" stroke-linejoin="round"/>
</g>
</svg>
