<svg width="25" height="25" viewBox="0 0 25 25" fill="none" xmlns="http://www.w3.org/2000/svg">
<g id="Icon Left">
<g id="Vector">
<path d="M9.32046 18.9142C9.69554 18.5391 9.90625 18.0304 9.90625 17.5C9.90625 16.9696 9.69554 16.4609 9.32046 16.0858C8.94539 15.7107 8.43668 15.5 7.90625 15.5C7.37582 15.5 6.86711 15.7107 6.49204 16.0858C6.11696 16.4609 5.90625 16.9696 5.90625 17.5C5.90625 18.0304 6.11696 18.5391 6.49204 18.9142C6.86711 19.2893 7.37582 19.5 7.90625 19.5C8.43668 19.5 8.94539 19.2893 9.32046 18.9142Z" stroke="#6B6F80" stroke-width="1.5"/>
<path d="M19.3205 18.9142C19.6955 18.5391 19.9062 18.0304 19.9062 17.5C19.9062 16.9696 19.6955 16.4609 19.3205 16.0858C18.9454 15.7107 18.4367 15.5 17.9062 15.5C17.3758 15.5 16.8671 15.7107 16.492 16.0858C16.117 16.4609 15.9062 16.9696 15.9062 17.5C15.9062 18.0304 16.117 18.5391 16.492 18.9142C16.8671 19.2893 17.3758 19.5 17.9062 19.5C18.4367 19.5 18.9454 19.2893 19.3205 18.9142Z" stroke="#6B6F80" stroke-width="1.5"/>
</g>
<path id="Vector_2" d="M13.9062 16.5V6.5C13.9062 6.23478 13.8009 5.98043 13.6134 5.79289C13.4258 5.60536 13.1715 5.5 12.9062 5.5H4.90625C4.64103 5.5 4.38668 5.60536 4.19914 5.79289C4.01161 5.98043 3.90625 6.23478 3.90625 6.5V16.5C3.90625 16.7652 4.01161 17.0196 4.19914 17.2071C4.38668 17.3946 4.64103 17.5 4.90625 17.5H5.90625M13.9062 16.5C13.9062 16.7652 13.8009 17.0196 13.6134 17.2071C13.4258 17.3946 13.1715 17.5 12.9062 17.5H9.90625M13.9062 16.5V8.5C13.9062 8.23478 14.0116 7.98043 14.1991 7.79289C14.3867 7.60536 14.641 7.5 14.9062 7.5H17.4923C17.7574 7.50006 18.0118 7.60545 18.1992 7.793L21.6133 11.207C21.8008 11.3945 21.9062 11.6488 21.9062 11.914V16.5C21.9062 16.7652 21.8009 17.0196 21.6134 17.2071C21.4258 17.3946 21.1715 17.5 20.9062 17.5H19.9062M13.9062 16.5C13.9062 16.7652 14.0116 17.0196 14.1991 17.2071C14.3867 17.3946 14.641 17.5 14.9062 17.5H15.9062M5.90625 17.5C5.90625 18.0304 6.11696 18.5391 6.49204 18.9142C6.86711 19.2893 7.37582 19.5 7.90625 19.5C8.43668 19.5 8.94539 19.2893 9.32046 18.9142C9.69554 18.5391 9.90625 18.0304 9.90625 17.5M5.90625 17.5C5.90625 16.9696 6.11696 16.4609 6.49204 16.0858C6.86711 15.7107 7.37582 15.5 7.90625 15.5C8.43668 15.5 8.94539 15.7107 9.32046 16.0858C9.69554 16.4609 9.90625 16.9696 9.90625 17.5M19.9062 17.5C19.9062 18.0304 19.6955 18.5391 19.3205 18.9142C18.9454 19.2893 18.4367 19.5 17.9062 19.5C17.3758 19.5 16.8671 19.2893 16.492 18.9142C16.117 18.5391 15.9062 18.0304 15.9062 17.5M19.9062 17.5C19.9062 16.9696 19.6955 16.4609 19.3205 16.0858C18.9454 15.7107 18.4367 15.5 17.9062 15.5C17.3758 15.5 16.8671 15.7107 16.492 16.0858C16.117 16.4609 15.9062 16.9696 15.9062 17.5" stroke="#6B6F80" stroke-width="1.5" stroke-linecap="round" stroke-linejoin="round"/>
</g>
</svg>
